<?xml version="1.0" encoding="utf-8" standalone="no"?>
<!DOCTYPE svg PUBLIC "-//W3C//DTD SVG 1.1//EN"
  "http://www.w3.org/Graphics/SVG/1.1/DTD/svg11.dtd">
<!-- Created with matplotlib (http://matplotlib.org/) -->
<svg height="288pt" version="1.1" viewBox="0 0 576 288" width="576pt" xmlns="http://www.w3.org/2000/svg" xmlns:xlink="http://www.w3.org/1999/xlink">
 <defs>
  <style type="text/css">
*{stroke-linecap:square;stroke-linejoin:round;}
  </style>
 </defs>
 <g id="figure_1">
  <g id="patch_1">
   <path d="
M0 288
L576 288
L576 0
L0 0
z
" style="fill:#ffffff;"/>
  </g>
  <g id="axes_1">
   <g id="patch_2">
    <path d="
M72 259.2
L274.909 259.2
L274.909 28.8
L72 28.8
z
" style="fill:#ffffff;"/>
   </g>
   <g id="line2d_1">
    <path clip-path="url(#p2d6743a81f)" d="
M74.0291 259.2
L76.0582 248.517
L78.0873 244.41
L80.1164 241.358
L82.1455 239.412
L84.1745 237.404
L86.2036 235.421
L88.2327 232.833
L90.2618 231.019
L92.2909 228.473
L94.32 226.199
L96.3491 223.754
L98.3782 221.688
L100.407 219.678
L102.436 217.631
L104.465 215.804
L106.495 214.016
L108.524 212.501
L110.553 209.301
L112.582 207.2
L114.611 204.812
L116.64 202.995
L118.669 200.903
L120.698 199.041
L122.727 196.276
L124.756 194.808
L126.785 193.102
L128.815 190.847
L130.844 188.935
L132.873 186.983
L134.902 185.164
L136.931 183.233
L138.96 181.387
L140.989 179.535
L143.018 177.646
L145.047 176.403
L147.076 174.208
L149.105 173.17
L151.135 171.271
L153.164 169.632
L155.193 167.827
L157.222 165.602
L159.251 164.448
L161.28 162.431
L163.309 161.024
L165.338 158.176
L167.367 156.29
L169.396 153.951
L171.425 151.78
L173.455 150.918
L175.484 149.027
L177.513 147.518
L179.542 144.956
L181.571 143.491
L183.6 141.273
L185.629 139.802
L187.658 138.803
L189.687 136.778
L191.716 134.139
L193.745 133.343
L195.775 132.305
L197.804 130.582
L199.833 128.852
L201.862 126.562
L203.891 124.97
L205.92 123.355
L207.949 121.044
L209.978 119.978
L212.007 116.768
L214.036 114.592
L216.065 112.388
L218.095 112.079
L220.124 111.371
L222.153 110.703
L224.182 109.249
L226.211 108.863
L228.24 107.941
L230.269 106.291
L232.298 105.97
L234.327 105.092
L236.356 104.8
L238.385 105.16
L240.415 105.158
L242.444 105.117
L244.473 103.766
L246.502 102.833
L248.531 102.898
L250.56 103.147
L252.589 102.132
L254.618 101.918
L256.647 101.274
L258.676 102.128
L260.705 101.722
L262.735 102.116
L264.764 102.431
L266.793 102.344
L268.822 102.039
L270.851 102.06" style="fill:none;stroke:#000000;"/>
   </g>
   <g id="line2d_2">
    <path clip-path="url(#p2d6743a81f)" d="
M74.0291 259.2
L76.0582 248.843
L78.0873 246.191
L80.1164 244.126
L82.1455 242.946
L84.1745 241.981
L86.2036 240.379
L88.2327 238.506
L90.2618 237.924
L92.2909 236.895
L94.32 235.707
L96.3491 234.768
L98.3782 235.468
L100.407 234.53
L102.436 234.002
L104.465 233.458
L106.495 233.569
L108.524 233.643
L110.553 232.453
L112.582 231.651
L114.611 230.298
L116.64 230.296
L118.669 228.225
L120.698 227.376
L122.727 225.252
L124.756 224.67
L126.785 224.376
L128.815 223.056
L130.844 221.966
L132.873 221.918
L134.902 220.712
L136.931 219.987
L138.96 219.206
L140.989 218.891
L143.018 217.727
L145.047 217.694
L147.076 217.252
L149.105 216.814
L151.135 216.107
L153.164 215.491
L155.193 214.89
L157.222 213.612
L159.251 213.661
L161.28 213.431
L163.309 214.742
L165.338 213.349
L167.367 213.1
L169.396 212.648
L171.425 211.954
L173.455 212.795
L175.484 212.505
L177.513 212.703
L179.542 212.598
L181.571 212.31
L183.6 211.361
L185.629 211.049
L187.658 211.073
L189.687 210.572
L191.716 209.396
L193.745 209.152
L195.775 209.321
L197.804 209.06
L199.833 207.963
L201.862 207.608
L203.891 207.408
L205.92 207.072
L207.949 206.422
L209.978 206.616
L212.007 205.515
L214.036 205.056
L216.065 205.184
L218.095 205.311
L220.124 205.67
L222.153 205.577
L224.182 205.283
L226.211 204.886
L228.24 205.673
L230.269 204.977
L232.298 206.031
L234.327 205.869
L236.356 205.414
L238.385 204.732
L240.415 205.005
L242.444 204.82
L244.473 204.875
L246.502 203.982
L248.531 204.198
L250.56 204.572
L252.589 204.458
L254.618 204.214
L256.647 203.881
L258.676 204.343
L260.705 204.298
L262.735 204.262
L264.764 204.329
L266.793 203.418
L268.822 203.643
L270.851 203.572" style="fill:none;stroke:#000000;stroke-dasharray:6.000000,6.000000;stroke-dashoffset:0.0;stroke-linecap:butt;"/>
   </g>
   <g id="line2d_3">
    <path clip-path="url(#p2d6743a81f)" d="
M74.0291 259.2
L76.0582 248.738
L78.0873 242.311
L80.1164 238.459
L82.1455 235.438
L84.1745 232.358
L86.2036 230.644
L88.2327 228.549
L90.2618 224.908
L92.2909 223.741
L94.32 222.126
L96.3491 217.603
L98.3782 215.059
L100.407 213.281
L102.436 210.993
L104.465 207.672
L106.495 205.669
L108.524 203.812
L110.553 198.769
L112.582 195.184
L114.611 193.617
L116.64 190.373
L118.669 189.945
L120.698 187.405
L122.727 184.481
L124.756 181.145
L126.785 177.179
L128.815 172.977
L130.844 169.658
L132.873 166.082
L134.902 162.636
L136.931 159.418
L138.96 156.685
L140.989 151.149
L143.018 147.851
L145.047 144.037
L147.076 140.371
L149.105 138.118
L151.135 134.96
L153.164 131.665
L155.193 129.38
L157.222 125.631
L159.251 124.47
L161.28 120.797
L163.309 118.702
L165.338 114.376
L167.367 112.085
L169.396 108.895
L171.425 106.132
L173.455 105.57
L175.484 101.506
L177.513 99.0283
L179.542 94.3941
L181.571 94.9862
L183.6 91.881
L185.629 90.8258
L187.658 88.5267
L189.687 85.9674
L191.716 82.246
L193.745 83.7991
L195.775 82.5189
L197.804 79.05
L199.833 78.3876
L201.862 74.9496
L203.891 73.5933
L205.92 70.3182
L207.949 66.8605
L209.978 65.8461
L212.007 61.3957
L214.036 57.6784
L216.065 54.8052
L218.095 55.8365
L220.124 55.3188
L222.153 53.5928
L224.182 51.2868
L226.211 51.1282
L228.24 48.6646
L230.269 46.8702
L232.298 46.0792
L234.327 45.3972
L236.356 45.3979
L238.385 47.9087
L240.415 48.6132
L242.444 47.3424
L244.473 45.6485
L246.502 44.635
L248.531 45.8589
L250.56 48.1488
L252.589 46.4499
L254.618 44.7171
L256.647 45.3203
L258.676 47.4916
L260.705 46.6835
L262.735 46.4962
L264.764 47.3297
L266.793 48.4469
L268.822 48.8077
L270.851 48.1065" style="fill:none;stroke:#ff0000;stroke-dasharray:6.000000,6.000000;stroke-dashoffset:0.0;stroke-linecap:butt;"/>
   </g>
   <g id="line2d_4">
    <path clip-path="url(#p2d6743a81f)" d="
M74.0291 259.2
L76.0582 248.856
L78.0873 244.366
L80.1164 241.397
L82.1455 240.328
L84.1745 240.398
L86.2036 239.503
L88.2327 240.315
L90.2618 237.611
L92.2909 232.588
L94.32 230.142
L96.3491 232.406
L98.3782 229.237
L100.407 227.089
L102.436 225.634
L104.465 225.29
L106.495 222.681
L108.524 222.65
L110.553 219.705
L112.582 218.687
L114.611 216.457
L116.64 216.602
L118.669 215.093
L120.698 214.055
L122.727 212.394
L124.756 213.023
L126.785 213.13
L128.815 214.243
L130.844 214.645
L132.873 214.053
L134.902 213.85
L136.931 213.071
L138.96 211.708
L140.989 212.919
L143.018 214.239
L145.047 214.902
L147.076 213.512
L149.105 217.787
L151.135 217.562
L153.164 216.874
L155.193 214.745
L157.222 215.556
L159.251 215.621
L161.28 217.292
L163.309 214.754
L165.338 217.132
L167.367 213.407
L169.396 212.857
L171.425 213.192
L173.455 207.839
L175.484 205.767
L177.513 202.729
L179.542 199.124
L181.571 195.348
L183.6 193.088
L185.629 193.02
L187.658 189.181
L189.687 184.819
L191.716 179.641
L193.745 177.437
L195.775 174.997
L197.804 175.301
L199.833 172.01
L201.862 169.239
L203.891 167.17
L205.92 165.578
L207.949 163.751
L209.978 162.903
L212.007 158.298
L214.036 155.849
L216.065 152.877
L218.095 151.735
L220.124 151.103
L222.153 150.052
L224.182 148.458
L226.211 147.243
L228.24 145.612
L230.269 144.028
L232.298 143.051
L234.327 142.077
L236.356 138.124
L238.385 136.853
L240.415 133.724
L242.444 133.119
L244.473 132.427
L246.502 129.137
L248.531 128.087
L250.56 128.29
L252.589 127.794
L254.618 126.041
L256.647 124.943
L258.676 124.23
L260.705 124.427
L262.735 127.251
L264.764 125.678
L266.793 125.202
L268.822 124.81
L270.851 124.233" style="fill:none;stroke:#0000ff;stroke-dasharray:6.000000,6.000000;stroke-dashoffset:0.0;stroke-linecap:butt;"/>
   </g>
   <g id="matplotlib.axis_1">
    <g id="xtick_1">
     <g id="line2d_5">
      <defs>
       <path d="
M0 0
L0 -4" id="mcb557df647" style="stroke:#000000;stroke-linecap:butt;stroke-width:0.5;"/>
      </defs>
      <g>
       <use style="stroke:#000000;stroke-linecap:butt;stroke-width:0.5;" x="72.0" xlink:href="#mcb557df647" y="259.2"/>
      </g>
     </g>
     <g id="line2d_6">
      <defs>
       <path d="
M0 0
L0 4" id="mdad270ee8e" style="stroke:#000000;stroke-linecap:butt;stroke-width:0.5;"/>
      </defs>
      <g>
       <use style="stroke:#000000;stroke-linecap:butt;stroke-width:0.5;" x="72.0" xlink:href="#mdad270ee8e" y="28.8"/>
      </g>
     </g>
     <g id="text_1">
      <!-- 0 -->
      <defs>
       <path d="
M31.7812 66.4062
Q24.1719 66.4062 20.3281 58.9062
Q16.5 51.4219 16.5 36.375
Q16.5 21.3906 20.3281 13.8906
Q24.1719 6.39062 31.7812 6.39062
Q39.4531 6.39062 43.2812 13.8906
Q47.125 21.3906 47.125 36.375
Q47.125 51.4219 43.2812 58.9062
Q39.4531 66.4062 31.7812 66.4062
M31.7812 74.2188
Q44.0469 74.2188 50.5156 64.5156
Q56.9844 54.8281 56.9844 36.375
Q56.9844 17.9688 50.5156 8.26562
Q44.0469 -1.42188 31.7812 -1.42188
Q19.5312 -1.42188 13.0625 8.26562
Q6.59375 17.9688 6.59375 36.375
Q6.59375 54.8281 13.0625 64.5156
Q19.5312 74.2188 31.7812 74.2188" id="BitstreamVeraSans-Roman-30"/>
      </defs>
      <g transform="translate(69.48046875 270.621875)scale(0.1 -0.1)">
       <use xlink:href="#BitstreamVeraSans-Roman-30"/>
      </g>
     </g>
    </g>
    <g id="xtick_2">
     <g id="line2d_7">
      <g>
       <use style="stroke:#000000;stroke-linecap:butt;stroke-width:0.5;" x="112.581818182" xlink:href="#mcb557df647" y="259.2"/>
      </g>
     </g>
     <g id="line2d_8">
      <g>
       <use style="stroke:#000000;stroke-linecap:butt;stroke-width:0.5;" x="112.581818182" xlink:href="#mdad270ee8e" y="28.8"/>
      </g>
     </g>
     <g id="text_2">
      <!-- 20 -->
      <defs>
       <path d="
M19.1875 8.29688
L53.6094 8.29688
L53.6094 0
L7.32812 0
L7.32812 8.29688
Q12.9375 14.1094 22.625 23.8906
Q32.3281 33.6875 34.8125 36.5312
Q39.5469 41.8438 41.4219 45.5312
Q43.3125 49.2188 43.3125 52.7812
Q43.3125 58.5938 39.2344 62.25
Q35.1562 65.9219 28.6094 65.9219
Q23.9688 65.9219 18.8125 64.3125
Q13.6719 62.7031 7.8125 59.4219
L7.8125 69.3906
Q13.7656 71.7812 18.9375 73
Q24.125 74.2188 28.4219 74.2188
Q39.75 74.2188 46.4844 68.5469
Q53.2188 62.8906 53.2188 53.4219
Q53.2188 48.9219 51.5312 44.8906
Q49.8594 40.875 45.4062 35.4062
Q44.1875 33.9844 37.6406 27.2188
Q31.1094 20.4531 19.1875 8.29688" id="BitstreamVeraSans-Roman-32"/>
      </defs>
      <g transform="translate(106.917755682 270.621875)scale(0.1 -0.1)">
       <use xlink:href="#BitstreamVeraSans-Roman-32"/>
       <use x="63.623046875" xlink:href="#BitstreamVeraSans-Roman-30"/>
      </g>
     </g>
    </g>
    <g id="xtick_3">
     <g id="line2d_9">
      <g>
       <use style="stroke:#000000;stroke-linecap:butt;stroke-width:0.5;" x="153.163636364" xlink:href="#mcb557df647" y="259.2"/>
      </g>
     </g>
     <g id="line2d_10">
      <g>
       <use style="stroke:#000000;stroke-linecap:butt;stroke-width:0.5;" x="153.163636364" xlink:href="#mdad270ee8e" y="28.8"/>
      </g>
     </g>
     <g id="text_3">
      <!-- 40 -->
      <defs>
       <path d="
M37.7969 64.3125
L12.8906 25.3906
L37.7969 25.3906
z

M35.2031 72.9062
L47.6094 72.9062
L47.6094 25.3906
L58.0156 25.3906
L58.0156 17.1875
L47.6094 17.1875
L47.6094 0
L37.7969 0
L37.7969 17.1875
L4.89062 17.1875
L4.89062 26.7031
z
" id="BitstreamVeraSans-Roman-34"/>
      </defs>
      <g transform="translate(147.377698864 270.621875)scale(0.1 -0.1)">
       <use xlink:href="#BitstreamVeraSans-Roman-34"/>
       <use x="63.623046875" xlink:href="#BitstreamVeraSans-Roman-30"/>
      </g>
     </g>
    </g>
    <g id="xtick_4">
     <g id="line2d_11">
      <g>
       <use style="stroke:#000000;stroke-linecap:butt;stroke-width:0.5;" x="193.745454545" xlink:href="#mcb557df647" y="259.2"/>
      </g>
     </g>
     <g id="line2d_12">
      <g>
       <use style="stroke:#000000;stroke-linecap:butt;stroke-width:0.5;" x="193.745454545" xlink:href="#mdad270ee8e" y="28.8"/>
      </g>
     </g>
     <g id="text_4">
      <!-- 60 -->
      <defs>
       <path d="
M33.0156 40.375
Q26.375 40.375 22.4844 35.8281
Q18.6094 31.2969 18.6094 23.3906
Q18.6094 15.5312 22.4844 10.9531
Q26.375 6.39062 33.0156 6.39062
Q39.6562 6.39062 43.5312 10.9531
Q47.4062 15.5312 47.4062 23.3906
Q47.4062 31.2969 43.5312 35.8281
Q39.6562 40.375 33.0156 40.375
M52.5938 71.2969
L52.5938 62.3125
Q48.875 64.0625 45.0938 64.9844
Q41.3125 65.9219 37.5938 65.9219
Q27.8281 65.9219 22.6719 59.3281
Q17.5312 52.7344 16.7969 39.4062
Q19.6719 43.6562 24.0156 45.9219
Q28.375 48.1875 33.5938 48.1875
Q44.5781 48.1875 50.9531 41.5156
Q57.3281 34.8594 57.3281 23.3906
Q57.3281 12.1562 50.6875 5.35938
Q44.0469 -1.42188 33.0156 -1.42188
Q20.3594 -1.42188 13.6719 8.26562
Q6.98438 17.9688 6.98438 36.375
Q6.98438 53.6562 15.1875 63.9375
Q23.3906 74.2188 37.2031 74.2188
Q40.9219 74.2188 44.7031 73.4844
Q48.4844 72.75 52.5938 71.2969" id="BitstreamVeraSans-Roman-36"/>
      </defs>
      <g transform="translate(188.064204545 270.621875)scale(0.1 -0.1)">
       <use xlink:href="#BitstreamVeraSans-Roman-36"/>
       <use x="63.623046875" xlink:href="#BitstreamVeraSans-Roman-30"/>
      </g>
     </g>
    </g>
    <g id="xtick_5">
     <g id="line2d_13">
      <g>
       <use style="stroke:#000000;stroke-linecap:butt;stroke-width:0.5;" x="234.327272727" xlink:href="#mcb557df647" y="259.2"/>
      </g>
     </g>
     <g id="line2d_14">
      <g>
       <use style="stroke:#000000;stroke-linecap:butt;stroke-width:0.5;" x="234.327272727" xlink:href="#mdad270ee8e" y="28.8"/>
      </g>
     </g>
     <g id="text_5">
      <!-- 80 -->
      <defs>
       <path d="
M31.7812 34.625
Q24.75 34.625 20.7188 30.8594
Q16.7031 27.0938 16.7031 20.5156
Q16.7031 13.9219 20.7188 10.1562
Q24.75 6.39062 31.7812 6.39062
Q38.8125 6.39062 42.8594 10.1719
Q46.9219 13.9688 46.9219 20.5156
Q46.9219 27.0938 42.8906 30.8594
Q38.875 34.625 31.7812 34.625
M21.9219 38.8125
Q15.5781 40.375 12.0312 44.7188
Q8.5 49.0781 8.5 55.3281
Q8.5 64.0625 14.7188 69.1406
Q20.9531 74.2188 31.7812 74.2188
Q42.6719 74.2188 48.875 69.1406
Q55.0781 64.0625 55.0781 55.3281
Q55.0781 49.0781 51.5312 44.7188
Q48 40.375 41.7031 38.8125
Q48.8281 37.1562 52.7969 32.3125
Q56.7812 27.4844 56.7812 20.5156
Q56.7812 9.90625 50.3125 4.23438
Q43.8438 -1.42188 31.7812 -1.42188
Q19.7344 -1.42188 13.25 4.23438
Q6.78125 9.90625 6.78125 20.5156
Q6.78125 27.4844 10.7812 32.3125
Q14.7969 37.1562 21.9219 38.8125
M18.3125 54.3906
Q18.3125 48.7344 21.8438 45.5625
Q25.3906 42.3906 31.7812 42.3906
Q38.1406 42.3906 41.7188 45.5625
Q45.3125 48.7344 45.3125 54.3906
Q45.3125 60.0625 41.7188 63.2344
Q38.1406 66.4062 31.7812 66.4062
Q25.3906 66.4062 21.8438 63.2344
Q18.3125 60.0625 18.3125 54.3906" id="BitstreamVeraSans-Roman-38"/>
      </defs>
      <g transform="translate(228.635866477 270.621875)scale(0.1 -0.1)">
       <use xlink:href="#BitstreamVeraSans-Roman-38"/>
       <use x="63.623046875" xlink:href="#BitstreamVeraSans-Roman-30"/>
      </g>
     </g>
    </g>
    <g id="xtick_6">
     <g id="line2d_15">
      <g>
       <use style="stroke:#000000;stroke-linecap:butt;stroke-width:0.5;" x="274.909090909" xlink:href="#mcb557df647" y="259.2"/>
      </g>
     </g>
     <g id="line2d_16">
      <g>
       <use style="stroke:#000000;stroke-linecap:butt;stroke-width:0.5;" x="274.909090909" xlink:href="#mdad270ee8e" y="28.8"/>
      </g>
     </g>
     <g id="text_6">
      <!-- 100 -->
      <defs>
       <path d="
M12.4062 8.29688
L28.5156 8.29688
L28.5156 63.9219
L10.9844 60.4062
L10.9844 69.3906
L28.4219 72.9062
L38.2812 72.9062
L38.2812 8.29688
L54.3906 8.29688
L54.3906 0
L12.4062 0
z
" id="BitstreamVeraSans-Roman-31"/>
      </defs>
      <g transform="translate(266.246590909 270.621875)scale(0.1 -0.1)">
       <use xlink:href="#BitstreamVeraSans-Roman-31"/>
       <use x="63.623046875" xlink:href="#BitstreamVeraSans-Roman-30"/>
       <use x="127.24609375" xlink:href="#BitstreamVeraSans-Roman-30"/>
      </g>
     </g>
    </g>
    <g id="text_7">
     <!-- time (ps) -->
     <defs>
      <path id="BitstreamVeraSans-Roman-20"/>
      <path d="
M8.01562 75.875
L15.8281 75.875
Q23.1406 64.3594 26.7812 53.3125
Q30.4219 42.2812 30.4219 31.3906
Q30.4219 20.4531 26.7812 9.375
Q23.1406 -1.70312 15.8281 -13.1875
L8.01562 -13.1875
Q14.5 -2 17.7031 9.0625
Q20.9062 20.125 20.9062 31.3906
Q20.9062 42.6719 17.7031 53.6562
Q14.5 64.6562 8.01562 75.875" id="BitstreamVeraSans-Roman-29"/>
      <path d="
M52 44.1875
Q55.375 50.25 60.0625 53.125
Q64.75 56 71.0938 56
Q79.6406 56 84.2812 50.0156
Q88.9219 44.0469 88.9219 33.0156
L88.9219 0
L79.8906 0
L79.8906 32.7188
Q79.8906 40.5781 77.0938 44.375
Q74.3125 48.1875 68.6094 48.1875
Q61.625 48.1875 57.5625 43.5469
Q53.5156 38.9219 53.5156 30.9062
L53.5156 0
L44.4844 0
L44.4844 32.7188
Q44.4844 40.625 41.7031 44.4062
Q38.9219 48.1875 33.1094 48.1875
Q26.2188 48.1875 22.1562 43.5312
Q18.1094 38.875 18.1094 30.9062
L18.1094 0
L9.07812 0
L9.07812 54.6875
L18.1094 54.6875
L18.1094 46.1875
Q21.1875 51.2188 25.4844 53.6094
Q29.7812 56 35.6875 56
Q41.6562 56 45.8281 52.9688
Q50 49.9531 52 44.1875" id="BitstreamVeraSans-Roman-6d"/>
      <path d="
M9.42188 54.6875
L18.4062 54.6875
L18.4062 0
L9.42188 0
z

M9.42188 75.9844
L18.4062 75.9844
L18.4062 64.5938
L9.42188 64.5938
z
" id="BitstreamVeraSans-Roman-69"/>
      <path d="
M31 75.875
Q24.4688 64.6562 21.2812 53.6562
Q18.1094 42.6719 18.1094 31.3906
Q18.1094 20.125 21.3125 9.0625
Q24.5156 -2 31 -13.1875
L23.1875 -13.1875
Q15.875 -1.70312 12.2344 9.375
Q8.59375 20.4531 8.59375 31.3906
Q8.59375 42.2812 12.2031 53.3125
Q15.8281 64.3594 23.1875 75.875
z
" id="BitstreamVeraSans-Roman-28"/>
      <path d="
M56.2031 29.5938
L56.2031 25.2031
L14.8906 25.2031
Q15.4844 15.9219 20.4844 11.0625
Q25.4844 6.20312 34.4219 6.20312
Q39.5938 6.20312 44.4531 7.46875
Q49.3125 8.73438 54.1094 11.2812
L54.1094 2.78125
Q49.2656 0.734375 44.1875 -0.34375
Q39.1094 -1.42188 33.8906 -1.42188
Q20.7969 -1.42188 13.1562 6.1875
Q5.51562 13.8125 5.51562 26.8125
Q5.51562 40.2344 12.7656 48.1094
Q20.0156 56 32.3281 56
Q43.3594 56 49.7812 48.8906
Q56.2031 41.7969 56.2031 29.5938
M47.2188 32.2344
Q47.125 39.5938 43.0938 43.9844
Q39.0625 48.3906 32.4219 48.3906
Q24.9062 48.3906 20.3906 44.1406
Q15.875 39.8906 15.1875 32.1719
z
" id="BitstreamVeraSans-Roman-65"/>
      <path d="
M18.3125 70.2188
L18.3125 54.6875
L36.8125 54.6875
L36.8125 47.7031
L18.3125 47.7031
L18.3125 18.0156
Q18.3125 11.3281 20.1406 9.42188
Q21.9688 7.51562 27.5938 7.51562
L36.8125 7.51562
L36.8125 0
L27.5938 0
Q17.1875 0 13.2344 3.875
Q9.28125 7.76562 9.28125 18.0156
L9.28125 47.7031
L2.6875 47.7031
L2.6875 54.6875
L9.28125 54.6875
L9.28125 70.2188
z
" id="BitstreamVeraSans-Roman-74"/>
      <path d="
M44.2812 53.0781
L44.2812 44.5781
Q40.4844 46.5312 36.375 47.5
Q32.2812 48.4844 27.875 48.4844
Q21.1875 48.4844 17.8438 46.4375
Q14.5 44.3906 14.5 40.2812
Q14.5 37.1562 16.8906 35.375
Q19.2812 33.5938 26.5156 31.9844
L29.5938 31.2969
Q39.1562 29.25 43.1875 25.5156
Q47.2188 21.7812 47.2188 15.0938
Q47.2188 7.46875 41.1875 3.01562
Q35.1562 -1.42188 24.6094 -1.42188
Q20.2188 -1.42188 15.4531 -0.5625
Q10.6875 0.296875 5.42188 2
L5.42188 11.2812
Q10.4062 8.6875 15.2344 7.39062
Q20.0625 6.10938 24.8125 6.10938
Q31.1562 6.10938 34.5625 8.28125
Q37.9844 10.4531 37.9844 14.4062
Q37.9844 18.0625 35.5156 20.0156
Q33.0625 21.9688 24.7031 23.7812
L21.5781 24.5156
Q13.2344 26.2656 9.51562 29.9062
Q5.8125 33.5469 5.8125 39.8906
Q5.8125 47.6094 11.2812 51.7969
Q16.75 56 26.8125 56
Q31.7812 56 36.1719 55.2656
Q40.5781 54.5469 44.2812 53.0781" id="BitstreamVeraSans-Roman-73"/>
      <path d="
M18.1094 8.20312
L18.1094 -20.7969
L9.07812 -20.7969
L9.07812 54.6875
L18.1094 54.6875
L18.1094 46.3906
Q20.9531 51.2656 25.2656 53.625
Q29.5938 56 35.5938 56
Q45.5625 56 51.7812 48.0938
Q58.0156 40.1875 58.0156 27.2969
Q58.0156 14.4062 51.7812 6.48438
Q45.5625 -1.42188 35.5938 -1.42188
Q29.5938 -1.42188 25.2656 0.953125
Q20.9531 3.32812 18.1094 8.20312
M48.6875 27.2969
Q48.6875 37.2031 44.6094 42.8438
Q40.5312 48.4844 33.4062 48.4844
Q26.2656 48.4844 22.1875 42.8438
Q18.1094 37.2031 18.1094 27.2969
Q18.1094 17.3906 22.1875 11.75
Q26.2656 6.10938 33.4062 6.10938
Q40.5312 6.10938 44.6094 11.75
Q48.6875 17.3906 48.6875 27.2969" id="BitstreamVeraSans-Roman-70"/>
     </defs>
     <g transform="translate(151.318607955 283.3625)scale(0.1 -0.1)">
      <use xlink:href="#BitstreamVeraSans-Roman-74"/>
      <use x="39.208984375" xlink:href="#BitstreamVeraSans-Roman-69"/>
      <use x="66.9921875" xlink:href="#BitstreamVeraSans-Roman-6d"/>
      <use x="164.404296875" xlink:href="#BitstreamVeraSans-Roman-65"/>
      <use x="225.927734375" xlink:href="#BitstreamVeraSans-Roman-20"/>
      <use x="257.71484375" xlink:href="#BitstreamVeraSans-Roman-28"/>
      <use x="296.728515625" xlink:href="#BitstreamVeraSans-Roman-70"/>
      <use x="360.205078125" xlink:href="#BitstreamVeraSans-Roman-73"/>
      <use x="412.3046875" xlink:href="#BitstreamVeraSans-Roman-29"/>
     </g>
    </g>
   </g>
   <g id="matplotlib.axis_2">
    <g id="ytick_1">
     <g id="line2d_17">
      <defs>
       <path d="
M0 0
L4 0" id="mc8fcea1516" style="stroke:#000000;stroke-linecap:butt;stroke-width:0.5;"/>
      </defs>
      <g>
       <use style="stroke:#000000;stroke-linecap:butt;stroke-width:0.5;" x="72.0" xlink:href="#mc8fcea1516" y="259.2"/>
      </g>
     </g>
     <g id="line2d_18">
      <defs>
       <path d="
M0 0
L-4 0" id="m0d5b0a6425" style="stroke:#000000;stroke-linecap:butt;stroke-width:0.5;"/>
      </defs>
      <g>
       <use style="stroke:#000000;stroke-linecap:butt;stroke-width:0.5;" x="274.909090909" xlink:href="#m0d5b0a6425" y="259.2"/>
      </g>
     </g>
     <g id="text_8">
      <!-- 0 -->
      <g transform="translate(62.9609375 262.83984375)scale(0.1 -0.1)">
       <use xlink:href="#BitstreamVeraSans-Roman-30"/>
      </g>
     </g>
    </g>
    <g id="ytick_2">
     <g id="line2d_19">
      <g>
       <use style="stroke:#000000;stroke-linecap:butt;stroke-width:0.5;" x="72.0" xlink:href="#mc8fcea1516" y="213.12"/>
      </g>
     </g>
     <g id="line2d_20">
      <g>
       <use style="stroke:#000000;stroke-linecap:butt;stroke-width:0.5;" x="274.909090909" xlink:href="#m0d5b0a6425" y="213.12"/>
      </g>
     </g>
     <g id="text_9">
      <!-- 2 -->
      <g transform="translate(63.371875 216.8309375)scale(0.1 -0.1)">
       <use xlink:href="#BitstreamVeraSans-Roman-32"/>
      </g>
     </g>
    </g>
    <g id="ytick_3">
     <g id="line2d_21">
      <g>
       <use style="stroke:#000000;stroke-linecap:butt;stroke-width:0.5;" x="72.0" xlink:href="#mc8fcea1516" y="167.04"/>
      </g>
     </g>
     <g id="line2d_22">
      <g>
       <use style="stroke:#000000;stroke-linecap:butt;stroke-width:0.5;" x="274.909090909" xlink:href="#m0d5b0a6425" y="167.04"/>
      </g>
     </g>
     <g id="text_10">
      <!-- 4 -->
      <g transform="translate(62.6875 170.6853125)scale(0.1 -0.1)">
       <use xlink:href="#BitstreamVeraSans-Roman-34"/>
      </g>
     </g>
    </g>
    <g id="ytick_4">
     <g id="line2d_23">
      <g>
       <use style="stroke:#000000;stroke-linecap:butt;stroke-width:0.5;" x="72.0" xlink:href="#mc8fcea1516" y="120.96"/>
      </g>
     </g>
     <g id="line2d_24">
      <g>
       <use style="stroke:#000000;stroke-linecap:butt;stroke-width:0.5;" x="274.909090909" xlink:href="#m0d5b0a6425" y="120.96"/>
      </g>
     </g>
     <g id="text_11">
      <!-- 6 -->
      <g transform="translate(62.965625 124.59984375)scale(0.1 -0.1)">
       <use xlink:href="#BitstreamVeraSans-Roman-36"/>
      </g>
     </g>
    </g>
    <g id="ytick_5">
     <g id="line2d_25">
      <g>
       <use style="stroke:#000000;stroke-linecap:butt;stroke-width:0.5;" x="72.0" xlink:href="#mc8fcea1516" y="74.88"/>
      </g>
     </g>
     <g id="line2d_26">
      <g>
       <use style="stroke:#000000;stroke-linecap:butt;stroke-width:0.5;" x="274.909090909" xlink:href="#m0d5b0a6425" y="74.88"/>
      </g>
     </g>
     <g id="text_12">
      <!-- 8 -->
      <g transform="translate(63.0 78.51984375)scale(0.1 -0.1)">
       <use xlink:href="#BitstreamVeraSans-Roman-38"/>
      </g>
     </g>
    </g>
    <g id="ytick_6">
     <g id="line2d_27">
      <g>
       <use style="stroke:#000000;stroke-linecap:butt;stroke-width:0.5;" x="72.0" xlink:href="#mc8fcea1516" y="28.8"/>
      </g>
     </g>
     <g id="line2d_28">
      <g>
       <use style="stroke:#000000;stroke-linecap:butt;stroke-width:0.5;" x="274.909090909" xlink:href="#m0d5b0a6425" y="28.8"/>
      </g>
     </g>
     <g id="text_13">
      <!-- 10 -->
      <g transform="translate(57.0375 32.43984375)scale(0.1 -0.1)">
       <use xlink:href="#BitstreamVeraSans-Roman-31"/>
       <use x="63.623046875" xlink:href="#BitstreamVeraSans-Roman-30"/>
      </g>
     </g>
    </g>
    <g id="text_14">
     <!-- RMSD ($\AA$) -->
     <defs>
      <path d="
M19.6719 64.7969
L19.6719 8.10938
L31.5938 8.10938
Q46.6875 8.10938 53.6875 14.9375
Q60.6875 21.7812 60.6875 36.5312
Q60.6875 51.1719 53.6875 57.9844
Q46.6875 64.7969 31.5938 64.7969
z

M9.8125 72.9062
L30.0781 72.9062
Q51.2656 72.9062 61.1719 64.0938
Q71.0938 55.2812 71.0938 36.5312
Q71.0938 17.6719 61.125 8.82812
Q51.1719 0 30.0781 0
L9.8125 0
z
" id="BitstreamVeraSans-Roman-44"/>
      <path d="
M14.0938 18.5938
L34.5938 67.2969
Q30.9062 67.7031 28.4531 70.5
Q26 73.2969 26 77.2031
Q26 81.2969 28.9531 84.1875
Q31.9062 87.0938 36.0938 87.0938
Q40.0938 87.0938 43 84.1406
Q45.9062 81.2031 45.9062 77.0938
Q45.9062 73.2031 43.2969 70.3906
Q40.7031 67.5938 36.7969 67.2031
L61.2969 11.0938
Q63.5 5.90625 65.25 4.09375
Q67 2.29688 70.7031 1.90625
L70.7031 0
L45.2031 0
L45.2031 1.90625
Q49.2031 1.90625 50.7031 2.79688
Q52.0938 3.5 52.0938 5.20312
Q52.0938 7.79688 50.2031 12.2031
L46.0938 21.5938
L19.9062 21.5938
L15.2969 10.2031
Q14.4062 7.90625 14.4062 6
Q14.4062 3.70312 16.0469 2.79688
Q17.7031 1.90625 21.4062 1.90625
L21.4062 0
L1.5 0
L1.5 1.90625
Q5.70312 2.29688 7.59375 4.9375
Q9.5 7.59375 14.0938 18.5938
M42.5 77.2031
Q42.5 79.9062 40.5469 81.7969
Q38.5938 83.7031 35.7969 83.7031
Q33.2031 83.7031 31.2969 81.75
Q29.4062 79.7969 29.4062 77.2031
Q29.4062 74.4062 31.2969 72.5
Q33.2031 70.5938 35.7969 70.5938
Q38.5938 70.5938 40.5469 72.5
Q42.5 74.4062 42.5 77.2031
M44.7031 25.7031
L33.0938 53.2031
L21.5938 25.7031
z
" id="STIXGeneral-Regular-212b"/>
      <path d="
M44.3906 34.1875
Q47.5625 33.1094 50.5625 29.5938
Q53.5625 26.0781 56.5938 19.9219
L66.6094 0
L56 0
L46.6875 18.7031
Q43.0625 26.0312 39.6719 28.4219
Q36.2812 30.8125 30.4219 30.8125
L19.6719 30.8125
L19.6719 0
L9.8125 0
L9.8125 72.9062
L32.0781 72.9062
Q44.5781 72.9062 50.7344 67.6719
Q56.8906 62.4531 56.8906 51.9062
Q56.8906 45.0156 53.6875 40.4688
Q50.4844 35.9375 44.3906 34.1875
M19.6719 64.7969
L19.6719 38.9219
L32.0781 38.9219
Q39.2031 38.9219 42.8438 42.2188
Q46.4844 45.5156 46.4844 51.9062
Q46.4844 58.2969 42.8438 61.5469
Q39.2031 64.7969 32.0781 64.7969
z
" id="BitstreamVeraSans-Roman-52"/>
      <path d="
M9.8125 72.9062
L24.5156 72.9062
L43.1094 23.2969
L61.8125 72.9062
L76.5156 72.9062
L76.5156 0
L66.8906 0
L66.8906 64.0156
L48.0938 14.0156
L38.1875 14.0156
L19.3906 64.0156
L19.3906 0
L9.8125 0
z
" id="BitstreamVeraSans-Roman-4d"/>
      <path d="
M53.5156 70.5156
L53.5156 60.8906
Q47.9062 63.5781 42.9219 64.8906
Q37.9375 66.2188 33.2969 66.2188
Q25.25 66.2188 20.875 63.0938
Q16.5 59.9688 16.5 54.2031
Q16.5 49.3594 19.4062 46.8906
Q22.3125 44.4375 30.4219 42.9219
L36.375 41.7031
Q47.4062 39.5938 52.6562 34.2969
Q57.9062 29 57.9062 20.125
Q57.9062 9.51562 50.7969 4.04688
Q43.7031 -1.42188 29.9844 -1.42188
Q24.8125 -1.42188 18.9688 -0.25
Q13.1406 0.921875 6.89062 3.21875
L6.89062 13.375
Q12.8906 10.0156 18.6562 8.29688
Q24.4219 6.59375 29.9844 6.59375
Q38.4219 6.59375 43.0156 9.90625
Q47.6094 13.2344 47.6094 19.3906
Q47.6094 24.75 44.3125 27.7812
Q41.0156 30.8125 33.5 32.3281
L27.4844 33.5
Q16.4531 35.6875 11.5156 40.375
Q6.59375 45.0625 6.59375 53.4219
Q6.59375 63.0938 13.4062 68.6562
Q20.2188 74.2188 32.1719 74.2188
Q37.3125 74.2188 42.625 73.2812
Q47.9531 72.3594 53.5156 70.5156" id="BitstreamVeraSans-Roman-53"/>
     </defs>
     <g transform="translate(52.0375 167.95)rotate(-90.0)scale(0.1 -0.1)">
      <use transform="translate(0.0 14.90625)" xlink:href="#BitstreamVeraSans-Roman-52"/>
      <use transform="translate(69.482421875 14.90625)" xlink:href="#BitstreamVeraSans-Roman-4d"/>
      <use transform="translate(155.76171875 14.90625)" xlink:href="#BitstreamVeraSans-Roman-53"/>
      <use transform="translate(219.23828125 14.90625)" xlink:href="#BitstreamVeraSans-Roman-44"/>
      <use transform="translate(296.240234375 14.90625)" xlink:href="#BitstreamVeraSans-Roman-20"/>
      <use transform="translate(328.02734375 14.90625)" xlink:href="#BitstreamVeraSans-Roman-28"/>
      <use transform="translate(367.041015625 14.90625)" xlink:href="#STIXGeneral-Regular-212b"/>
      <use transform="translate(439.240997314 14.90625)" xlink:href="#BitstreamVeraSans-Roman-29"/>
     </g>
    </g>
   </g>
   <g id="patch_3">
    <path d="
M72 28.8
L274.909 28.8" style="fill:none;stroke:#000000;"/>
   </g>
   <g id="patch_4">
    <path d="
M274.909 259.2
L274.909 28.8" style="fill:none;stroke:#000000;"/>
   </g>
   <g id="patch_5">
    <path d="
M72 259.2
L274.909 259.2" style="fill:none;stroke:#000000;"/>
   </g>
   <g id="patch_6">
    <path d="
M72 259.2
L72 28.8" style="fill:none;stroke:#000000;"/>
   </g>
   <g id="text_15">
    <!-- reference: 1AKE (closed) -->
    <defs>
     <path d="
M9.8125 72.9062
L19.6719 72.9062
L19.6719 42.0938
L52.3906 72.9062
L65.0938 72.9062
L28.9062 38.9219
L67.6719 0
L54.6875 0
L19.6719 35.1094
L19.6719 0
L9.8125 0
z
" id="BitstreamVeraSans-Roman-4b"/>
     <path d="
M54.8906 33.0156
L54.8906 0
L45.9062 0
L45.9062 32.7188
Q45.9062 40.4844 42.875 44.3281
Q39.8438 48.1875 33.7969 48.1875
Q26.5156 48.1875 22.3125 43.5469
Q18.1094 38.9219 18.1094 30.9062
L18.1094 0
L9.07812 0
L9.07812 54.6875
L18.1094 54.6875
L18.1094 46.1875
Q21.3438 51.125 25.7031 53.5625
Q30.0781 56 35.7969 56
Q45.2188 56 50.0469 50.1719
Q54.8906 44.3438 54.8906 33.0156" id="BitstreamVeraSans-Roman-6e"/>
     <path d="
M30.6094 48.3906
Q23.3906 48.3906 19.1875 42.75
Q14.9844 37.1094 14.9844 27.2969
Q14.9844 17.4844 19.1562 11.8438
Q23.3438 6.20312 30.6094 6.20312
Q37.7969 6.20312 41.9844 11.8594
Q46.1875 17.5312 46.1875 27.2969
Q46.1875 37.0156 41.9844 42.7031
Q37.7969 48.3906 30.6094 48.3906
M30.6094 56
Q42.3281 56 49.0156 48.375
Q55.7188 40.7656 55.7188 27.2969
Q55.7188 13.875 49.0156 6.21875
Q42.3281 -1.42188 30.6094 -1.42188
Q18.8438 -1.42188 12.1719 6.21875
Q5.51562 13.875 5.51562 27.2969
Q5.51562 40.7656 12.1719 48.375
Q18.8438 56 30.6094 56" id="BitstreamVeraSans-Roman-6f"/>
     <path d="
M9.42188 75.9844
L18.4062 75.9844
L18.4062 0
L9.42188 0
z
" id="BitstreamVeraSans-Roman-6c"/>
     <path d="
M9.8125 72.9062
L55.9062 72.9062
L55.9062 64.5938
L19.6719 64.5938
L19.6719 43.0156
L54.3906 43.0156
L54.3906 34.7188
L19.6719 34.7188
L19.6719 8.29688
L56.7812 8.29688
L56.7812 0
L9.8125 0
z
" id="BitstreamVeraSans-Roman-45"/>
     <path d="
M11.7188 12.4062
L22.0156 12.4062
L22.0156 0
L11.7188 0
z

M11.7188 51.7031
L22.0156 51.7031
L22.0156 39.3125
L11.7188 39.3125
z
" id="BitstreamVeraSans-Roman-3a"/>
     <path d="
M34.1875 63.1875
L20.7969 26.9062
L47.6094 26.9062
z

M28.6094 72.9062
L39.7969 72.9062
L67.5781 0
L57.3281 0
L50.6875 18.7031
L17.8281 18.7031
L11.1875 0
L0.78125 0
z
" id="BitstreamVeraSans-Roman-41"/>
     <path d="
M45.4062 46.3906
L45.4062 75.9844
L54.3906 75.9844
L54.3906 0
L45.4062 0
L45.4062 8.20312
Q42.5781 3.32812 38.25 0.953125
Q33.9375 -1.42188 27.875 -1.42188
Q17.9688 -1.42188 11.7344 6.48438
Q5.51562 14.4062 5.51562 27.2969
Q5.51562 40.1875 11.7344 48.0938
Q17.9688 56 27.875 56
Q33.9375 56 38.25 53.625
Q42.5781 51.2656 45.4062 46.3906
M14.7969 27.2969
Q14.7969 17.3906 18.875 11.75
Q22.9531 6.10938 30.0781 6.10938
Q37.2031 6.10938 41.2969 11.75
Q45.4062 17.3906 45.4062 27.2969
Q45.4062 37.2031 41.2969 42.8438
Q37.2031 48.4844 30.0781 48.4844
Q22.9531 48.4844 18.875 42.8438
Q14.7969 37.2031 14.7969 27.2969" id="BitstreamVeraSans-Roman-64"/>
     <path d="
M37.1094 75.9844
L37.1094 68.5
L28.5156 68.5
Q23.6875 68.5 21.7969 66.5469
Q19.9219 64.5938 19.9219 59.5156
L19.9219 54.6875
L34.7188 54.6875
L34.7188 47.7031
L19.9219 47.7031
L19.9219 0
L10.8906 0
L10.8906 47.7031
L2.29688 47.7031
L2.29688 54.6875
L10.8906 54.6875
L10.8906 58.5
Q10.8906 67.625 15.1406 71.7969
Q19.3906 75.9844 28.6094 75.9844
z
" id="BitstreamVeraSans-Roman-66"/>
     <path d="
M41.1094 46.2969
Q39.5938 47.1719 37.8125 47.5781
Q36.0312 48 33.8906 48
Q26.2656 48 22.1875 43.0469
Q18.1094 38.0938 18.1094 28.8125
L18.1094 0
L9.07812 0
L9.07812 54.6875
L18.1094 54.6875
L18.1094 46.1875
Q20.9531 51.1719 25.4844 53.5781
Q30.0312 56 36.5312 56
Q37.4531 56 38.5781 55.875
Q39.7031 55.7656 41.0625 55.5156
z
" id="BitstreamVeraSans-Roman-72"/>
     <path d="
M48.7812 52.5938
L48.7812 44.1875
Q44.9688 46.2969 41.1406 47.3438
Q37.3125 48.3906 33.4062 48.3906
Q24.6562 48.3906 19.8125 42.8438
Q14.9844 37.3125 14.9844 27.2969
Q14.9844 17.2812 19.8125 11.7344
Q24.6562 6.20312 33.4062 6.20312
Q37.3125 6.20312 41.1406 7.25
Q44.9688 8.29688 48.7812 10.4062
L48.7812 2.09375
Q45.0156 0.34375 40.9844 -0.53125
Q36.9688 -1.42188 32.4219 -1.42188
Q20.0625 -1.42188 12.7812 6.34375
Q5.51562 14.1094 5.51562 27.2969
Q5.51562 40.6719 12.8594 48.3281
Q20.2188 56 33.0156 56
Q37.1562 56 41.1094 55.1406
Q45.0625 54.2969 48.7812 52.5938" id="BitstreamVeraSans-Roman-63"/>
    </defs>
    <g transform="translate(99.8973579545 23.8)scale(0.12 -0.12)">
     <use xlink:href="#BitstreamVeraSans-Roman-72"/>
     <use x="38.86328125" xlink:href="#BitstreamVeraSans-Roman-65"/>
     <use x="100.38671875" xlink:href="#BitstreamVeraSans-Roman-66"/>
     <use x="135.591796875" xlink:href="#BitstreamVeraSans-Roman-65"/>
     <use x="197.115234375" xlink:href="#BitstreamVeraSans-Roman-72"/>
     <use x="235.978515625" xlink:href="#BitstreamVeraSans-Roman-65"/>
     <use x="297.501953125" xlink:href="#BitstreamVeraSans-Roman-6e"/>
     <use x="360.880859375" xlink:href="#BitstreamVeraSans-Roman-63"/>
     <use x="415.861328125" xlink:href="#BitstreamVeraSans-Roman-65"/>
     <use x="477.384765625" xlink:href="#BitstreamVeraSans-Roman-3a"/>
     <use x="511.076171875" xlink:href="#BitstreamVeraSans-Roman-20"/>
     <use x="542.86328125" xlink:href="#BitstreamVeraSans-Roman-31"/>
     <use x="606.486328125" xlink:href="#BitstreamVeraSans-Roman-41"/>
     <use x="674.89453125" xlink:href="#BitstreamVeraSans-Roman-4b"/>
     <use x="740.470703125" xlink:href="#BitstreamVeraSans-Roman-45"/>
     <use x="803.654296875" xlink:href="#BitstreamVeraSans-Roman-20"/>
     <use x="835.44140625" xlink:href="#BitstreamVeraSans-Roman-28"/>
     <use x="874.455078125" xlink:href="#BitstreamVeraSans-Roman-63"/>
     <use x="929.435546875" xlink:href="#BitstreamVeraSans-Roman-6c"/>
     <use x="957.21875" xlink:href="#BitstreamVeraSans-Roman-6f"/>
     <use x="1018.40039062" xlink:href="#BitstreamVeraSans-Roman-73"/>
     <use x="1070.5" xlink:href="#BitstreamVeraSans-Roman-65"/>
     <use x="1132.0234375" xlink:href="#BitstreamVeraSans-Roman-64"/>
     <use x="1195.5" xlink:href="#BitstreamVeraSans-Roman-29"/>
    </g>
   </g>
  </g>
  <g id="axes_2">
   <g id="patch_7">
    <path d="
M315.491 259.2
L518.4 259.2
L518.4 28.8
L315.491 28.8
z
" style="fill:#ffffff;"/>
   </g>
   <g id="line2d_29">
    <path clip-path="url(#p3584a46651)" d="
M317.52 101.982
L319.549 104.388
L321.578 106.774
L323.607 108.765
L325.636 110.854
L327.665 112.716
L329.695 114.48
L331.724 116.193
L333.753 118.002
L335.782 120.271
L337.811 122.355
L339.84 124.223
L341.869 126.123
L343.898 127.996
L345.927 129.91
L347.956 131.831
L349.985 133.721
L352.015 135.487
L354.044 137.598
L356.073 139.538
L358.102 141.309
L360.131 143.086
L362.16 144.714
L364.189 146.349
L366.218 147.98
L368.247 149.745
L370.276 151.581
L372.305 153.692
L374.335 155.556
L376.364 157.289
L378.393 159.143
L380.422 160.71
L382.451 162.294
L384.48 163.682
L386.509 165.106
L388.538 166.56
L390.567 168.739
L392.596 170.218
L394.625 172.451
L396.655 174.128
L398.684 175.787
L400.713 177.826
L402.742 179.985
L404.771 181.75
L406.8 183.486
L408.829 185.477
L410.858 187.201
L412.887 189.148
L414.916 191.187
L416.945 192.917
L418.975 194.511
L421.004 196.076
L423.033 197.816
L425.062 199.688
L427.091 201.201
L429.12 202.843
L431.149 204.659
L433.178 206.721
L435.207 208.264
L437.236 209.884
L439.265 211.62
L441.295 212.836
L443.324 214.474
L445.353 215.841
L447.382 217.372
L449.411 218.978
L451.44 220.501
L453.469 222.025
L455.498 223.449
L457.527 225.12
L459.556 226.456
L461.585 227.744
L463.615 228.848
L465.644 230.305
L467.673 231.34
L469.702 232.338
L471.731 233.19
L473.76 234.239
L475.789 234.904
L477.818 235.597
L479.847 236.545
L481.876 237.322
L483.905 238.182
L485.935 238.912
L487.964 239.728
L489.993 240.457
L492.022 241.426
L494.051 242.108
L496.08 242.864
L498.109 243.566
L500.138 244.376
L502.167 245.117
L504.196 245.591
L506.225 246.123
L508.255 246.814
L510.284 247.396
L512.313 247.858
L514.342 248.336" style="fill:none;stroke:#000000;"/>
   </g>
   <g id="line2d_30">
    <path clip-path="url(#p3584a46651)" d="
M317.52 208.942
L319.549 208.982
L321.578 209.069
L323.607 210.038
L325.636 210.998
L327.665 210.795
L329.695 210.418
L331.724 210.461
L333.753 211.83
L335.782 212.269
L337.811 212.887
L339.84 212.178
L341.869 212.994
L343.898 212.075
L345.927 212.719
L347.956 213.309
L349.985 213.402
L352.015 215.253
L354.044 214.934
L356.073 214.284
L358.102 213.787
L360.131 213.376
L362.16 215.342
L364.189 216.634
L366.218 216.705
L368.247 216.117
L370.276 216.158
L372.305 216.352
L374.335 217.025
L376.364 216.418
L378.393 216.955
L380.422 216.901
L382.451 216.825
L384.48 217.286
L386.509 217.143
L388.538 217.201
L390.567 217.521
L392.596 217.363
L394.625 217.772
L396.655 219.348
L398.684 219.565
L400.713 220.595
L402.742 221.178
L404.771 221.269
L406.8 222.648
L408.829 222.675
L410.858 224.319
L412.887 224.15
L414.916 225.086
L416.945 224.694
L418.975 224.585
L421.004 224.934
L423.033 224.978
L425.062 226.237
L427.091 226.211
L429.12 226.729
L431.149 227.038
L433.178 228.123
L435.207 228.622
L437.236 229.032
L439.265 229.963
L441.295 230.457
L443.324 230.999
L445.353 230.695
L447.382 230.291
L449.411 230.791
L451.44 231.998
L453.469 232.351
L455.498 231.304
L457.527 232.256
L459.556 232.97
L461.585 233.315
L463.615 234.789
L465.644 235.486
L467.673 235.412
L469.702 236.853
L471.731 237.123
L473.76 238.228
L475.789 239.416
L477.818 239.756
L479.847 240.08
L481.876 240.959
L483.905 241.49
L485.935 241.403
L487.964 241.612
L489.993 241.774
L492.022 242.638
L494.051 243.188
L496.08 244.404
L498.109 245.02
L500.138 244.701
L502.167 245.447
L504.196 246.248
L506.225 246.699
L508.255 247.538
L510.284 248.309
L512.313 248.808
L514.342 249.466" style="fill:none;stroke:#000000;stroke-dasharray:6.000000,6.000000;stroke-dashoffset:0.0;stroke-linecap:butt;"/>
   </g>
   <g id="line2d_31">
    <path clip-path="url(#p3584a46651)" d="
M317.52 87.0008
L319.549 88.8306
L321.578 92.3417
L323.607 93.5412
L325.636 95.3677
L327.665 95.7664
L329.695 99.3755
L331.724 98.4252
L333.753 99.8645
L335.782 100.77
L337.811 103.006
L339.84 105.746
L341.869 106.581
L343.898 110.26
L345.927 110.623
L347.956 113.714
L349.985 115.476
L352.015 116.31
L354.044 120.114
L356.073 123.18
L358.102 126.94
L360.131 128.755
L362.16 128.506
L364.189 128.145
L366.218 130.843
L368.247 133.077
L370.276 135.47
L372.305 138.965
L374.335 141.735
L376.364 144.968
L378.393 148.205
L380.422 149.33
L382.451 151.808
L384.48 155.02
L386.509 156.511
L388.538 159.32
L390.567 162.238
L392.596 164.371
L394.625 169.38
L396.655 169.87
L398.684 172.005
L400.713 174.529
L402.742 176.88
L404.771 181.259
L406.8 181.254
L408.829 185.332
L410.858 186.067
L412.887 187.971
L414.916 189.094
L416.945 191.652
L418.975 194.794
L421.004 195.378
L423.033 199.062
L425.062 200.105
L427.091 201.429
L429.12 205.063
L431.149 206.052
L433.178 208.92
L435.207 209.085
L437.236 210.295
L439.265 210.803
L441.295 213.319
L443.324 213.775
L445.353 215.849
L447.382 217.213
L449.411 220.801
L451.44 222.125
L453.469 223.624
L455.498 226.899
L457.527 230.18
L459.556 230.645
L461.585 232.07
L463.615 231.843
L465.644 235.065
L467.673 235.852
L469.702 236.188
L471.731 236.421
L473.76 239.504
L475.789 238.562
L477.818 239.286
L479.847 239.255
L481.876 241.059
L483.905 238.497
L485.935 240.674
L487.964 240.154
L489.993 240.168
L492.022 240.865
L494.051 242.21
L496.08 241.808
L498.109 242.738
L500.138 244.259
L502.167 245.522
L504.196 245.414
L506.225 246.71
L508.255 247.464
L510.284 247.615
L512.313 248.438
L514.342 247.92" style="fill:none;stroke:#ff0000;stroke-dasharray:6.000000,6.000000;stroke-dashoffset:0.0;stroke-linecap:butt;"/>
   </g>
   <g id="line2d_32">
    <path clip-path="url(#p3584a46651)" d="
M317.52 64.5147
L319.549 67.3796
L321.578 70.0439
L323.607 72.044
L325.636 73.8977
L327.665 74.2021
L329.695 74.4386
L331.724 75.1474
L333.753 76.0288
L335.782 78.4213
L337.811 81.7683
L339.84 82.5199
L341.869 83.6149
L343.898 86.3449
L345.927 86.408
L347.956 87.5248
L349.985 88.835
L352.015 88.7536
L354.044 90.9711
L356.073 92.2254
L358.102 93.5906
L360.131 98.9824
L362.16 99.3156
L364.189 100.733
L366.218 102.368
L368.247 104.18
L370.276 105.299
L372.305 105.066
L374.335 105.818
L376.364 106.977
L378.393 108.425
L380.422 110.065
L382.451 112.03
L384.48 110.339
L386.509 110.178
L388.538 109.796
L390.567 112.015
L392.596 113.106
L394.625 114.358
L396.655 114.966
L398.684 116.072
L400.713 116.681
L402.742 120.987
L404.771 120.623
L406.8 124.182
L408.829 125.526
L410.858 128.062
L412.887 130.858
L414.916 133.65
L416.945 137.915
L418.975 139.654
L421.004 143.682
L423.033 145.827
L425.062 148.823
L427.091 152.399
L429.12 154.288
L431.149 159.312
L433.178 162.811
L435.207 166.64
L437.236 171.699
L439.265 175.443
L441.295 175.735
L443.324 180.034
L445.353 182.585
L447.382 187.2
L449.411 189.434
L451.44 190.802
L453.469 193.959
L455.498 198.859
L457.527 200.895
L459.556 203.713
L461.585 207.536
L463.615 208.743
L465.644 210.898
L467.673 214.1
L469.702 214.704
L471.731 217.413
L473.76 217.167
L475.789 217.801
L477.818 219.579
L479.847 223.089
L481.876 223.409
L483.905 227.826
L485.935 230.031
L487.964 232.521
L489.993 235.723
L492.022 237.444
L494.051 237.717
L496.08 238.085
L498.109 239.37
L500.138 243.647
L502.167 243.469
L504.196 243.282
L506.225 243.827
L508.255 243.522
L510.284 243.694
L512.313 243.98
L514.342 244.606" style="fill:none;stroke:#0000ff;stroke-dasharray:6.000000,6.000000;stroke-dashoffset:0.0;stroke-linecap:butt;"/>
   </g>
   <g id="matplotlib.axis_3">
    <g id="xtick_7">
     <g id="line2d_33">
      <g>
       <use style="stroke:#000000;stroke-linecap:butt;stroke-width:0.5;" x="315.490909091" xlink:href="#mcb557df647" y="259.2"/>
      </g>
     </g>
     <g id="line2d_34">
      <g>
       <use style="stroke:#000000;stroke-linecap:butt;stroke-width:0.5;" x="315.490909091" xlink:href="#mdad270ee8e" y="28.8"/>
      </g>
     </g>
     <g id="text_16">
      <!-- 0 -->
      <g transform="translate(312.971377841 270.621875)scale(0.1 -0.1)">
       <use xlink:href="#BitstreamVeraSans-Roman-30"/>
      </g>
     </g>
    </g>
    <g id="xtick_8">
     <g id="line2d_35">
      <g>
       <use style="stroke:#000000;stroke-linecap:butt;stroke-width:0.5;" x="356.072727273" xlink:href="#mcb557df647" y="259.2"/>
      </g>
     </g>
     <g id="line2d_36">
      <g>
       <use style="stroke:#000000;stroke-linecap:butt;stroke-width:0.5;" x="356.072727273" xlink:href="#mdad270ee8e" y="28.8"/>
      </g>
     </g>
     <g id="text_17">
      <!-- 20 -->
      <g transform="translate(350.408664773 270.621875)scale(0.1 -0.1)">
       <use xlink:href="#BitstreamVeraSans-Roman-32"/>
       <use x="63.623046875" xlink:href="#BitstreamVeraSans-Roman-30"/>
      </g>
     </g>
    </g>
    <g id="xtick_9">
     <g id="line2d_37">
      <g>
       <use style="stroke:#000000;stroke-linecap:butt;stroke-width:0.5;" x="396.654545455" xlink:href="#mcb557df647" y="259.2"/>
      </g>
     </g>
     <g id="line2d_38">
      <g>
       <use style="stroke:#000000;stroke-linecap:butt;stroke-width:0.5;" x="396.654545455" xlink:href="#mdad270ee8e" y="28.8"/>
      </g>
     </g>
     <g id="text_18">
      <!-- 40 -->
      <g transform="translate(390.868607955 270.621875)scale(0.1 -0.1)">
       <use xlink:href="#BitstreamVeraSans-Roman-34"/>
       <use x="63.623046875" xlink:href="#BitstreamVeraSans-Roman-30"/>
      </g>
     </g>
    </g>
    <g id="xtick_10">
     <g id="line2d_39">
      <g>
       <use style="stroke:#000000;stroke-linecap:butt;stroke-width:0.5;" x="437.236363636" xlink:href="#mcb557df647" y="259.2"/>
      </g>
     </g>
     <g id="line2d_40">
      <g>
       <use style="stroke:#000000;stroke-linecap:butt;stroke-width:0.5;" x="437.236363636" xlink:href="#mdad270ee8e" y="28.8"/>
      </g>
     </g>
     <g id="text_19">
      <!-- 60 -->
      <g transform="translate(431.555113636 270.621875)scale(0.1 -0.1)">
       <use xlink:href="#BitstreamVeraSans-Roman-36"/>
       <use x="63.623046875" xlink:href="#BitstreamVeraSans-Roman-30"/>
      </g>
     </g>
    </g>
    <g id="xtick_11">
     <g id="line2d_41">
      <g>
       <use style="stroke:#000000;stroke-linecap:butt;stroke-width:0.5;" x="477.818181818" xlink:href="#mcb557df647" y="259.2"/>
      </g>
     </g>
     <g id="line2d_42">
      <g>
       <use style="stroke:#000000;stroke-linecap:butt;stroke-width:0.5;" x="477.818181818" xlink:href="#mdad270ee8e" y="28.8"/>
      </g>
     </g>
     <g id="text_20">
      <!-- 80 -->
      <g transform="translate(472.126775568 270.621875)scale(0.1 -0.1)">
       <use xlink:href="#BitstreamVeraSans-Roman-38"/>
       <use x="63.623046875" xlink:href="#BitstreamVeraSans-Roman-30"/>
      </g>
     </g>
    </g>
    <g id="xtick_12">
     <g id="line2d_43">
      <g>
       <use style="stroke:#000000;stroke-linecap:butt;stroke-width:0.5;" x="518.4" xlink:href="#mcb557df647" y="259.2"/>
      </g>
     </g>
     <g id="line2d_44">
      <g>
       <use style="stroke:#000000;stroke-linecap:butt;stroke-width:0.5;" x="518.4" xlink:href="#mdad270ee8e" y="28.8"/>
      </g>
     </g>
     <g id="text_21">
      <!-- 100 -->
      <g transform="translate(509.7375 270.621875)scale(0.1 -0.1)">
       <use xlink:href="#BitstreamVeraSans-Roman-31"/>
       <use x="63.623046875" xlink:href="#BitstreamVeraSans-Roman-30"/>
       <use x="127.24609375" xlink:href="#BitstreamVeraSans-Roman-30"/>
      </g>
     </g>
    </g>
    <g id="text_22">
     <!-- time (ps) -->
     <g transform="translate(394.809517045 283.3625)scale(0.1 -0.1)">
      <use xlink:href="#BitstreamVeraSans-Roman-74"/>
      <use x="39.208984375" xlink:href="#BitstreamVeraSans-Roman-69"/>
      <use x="66.9921875" xlink:href="#BitstreamVeraSans-Roman-6d"/>
      <use x="164.404296875" xlink:href="#BitstreamVeraSans-Roman-65"/>
      <use x="225.927734375" xlink:href="#BitstreamVeraSans-Roman-20"/>
      <use x="257.71484375" xlink:href="#BitstreamVeraSans-Roman-28"/>
      <use x="296.728515625" xlink:href="#BitstreamVeraSans-Roman-70"/>
      <use x="360.205078125" xlink:href="#BitstreamVeraSans-Roman-73"/>
      <use x="412.3046875" xlink:href="#BitstreamVeraSans-Roman-29"/>
     </g>
    </g>
   </g>
   <g id="matplotlib.axis_4">
    <g id="ytick_7">
     <g id="line2d_45">
      <g>
       <use style="stroke:#000000;stroke-linecap:butt;stroke-width:0.5;" x="315.490909091" xlink:href="#mc8fcea1516" y="259.2"/>
      </g>
     </g>
     <g id="line2d_46">
      <g>
       <use style="stroke:#000000;stroke-linecap:butt;stroke-width:0.5;" x="518.4" xlink:href="#m0d5b0a6425" y="259.2"/>
      </g>
     </g>
     <g id="text_23">
      <!-- 0 -->
      <g transform="translate(306.451846591 262.83984375)scale(0.1 -0.1)">
       <use xlink:href="#BitstreamVeraSans-Roman-30"/>
      </g>
     </g>
    </g>
    <g id="ytick_8">
     <g id="line2d_47">
      <g>
       <use style="stroke:#000000;stroke-linecap:butt;stroke-width:0.5;" x="315.490909091" xlink:href="#mc8fcea1516" y="213.12"/>
      </g>
     </g>
     <g id="line2d_48">
      <g>
       <use style="stroke:#000000;stroke-linecap:butt;stroke-width:0.5;" x="518.4" xlink:href="#m0d5b0a6425" y="213.12"/>
      </g>
     </g>
     <g id="text_24">
      <!-- 2 -->
      <g transform="translate(306.862784091 216.8309375)scale(0.1 -0.1)">
       <use xlink:href="#BitstreamVeraSans-Roman-32"/>
      </g>
     </g>
    </g>
    <g id="ytick_9">
     <g id="line2d_49">
      <g>
       <use style="stroke:#000000;stroke-linecap:butt;stroke-width:0.5;" x="315.490909091" xlink:href="#mc8fcea1516" y="167.04"/>
      </g>
     </g>
     <g id="line2d_50">
      <g>
       <use style="stroke:#000000;stroke-linecap:butt;stroke-width:0.5;" x="518.4" xlink:href="#m0d5b0a6425" y="167.04"/>
      </g>
     </g>
     <g id="text_25">
      <!-- 4 -->
      <g transform="translate(306.178409091 170.6853125)scale(0.1 -0.1)">
       <use xlink:href="#BitstreamVeraSans-Roman-34"/>
      </g>
     </g>
    </g>
    <g id="ytick_10">
     <g id="line2d_51">
      <g>
       <use style="stroke:#000000;stroke-linecap:butt;stroke-width:0.5;" x="315.490909091" xlink:href="#mc8fcea1516" y="120.96"/>
      </g>
     </g>
     <g id="line2d_52">
      <g>
       <use style="stroke:#000000;stroke-linecap:butt;stroke-width:0.5;" x="518.4" xlink:href="#m0d5b0a6425" y="120.96"/>
      </g>
     </g>
     <g id="text_26">
      <!-- 6 -->
      <g transform="translate(306.456534091 124.59984375)scale(0.1 -0.1)">
       <use xlink:href="#BitstreamVeraSans-Roman-36"/>
      </g>
     </g>
    </g>
    <g id="ytick_11">
     <g id="line2d_53">
      <g>
       <use style="stroke:#000000;stroke-linecap:butt;stroke-width:0.5;" x="315.490909091" xlink:href="#mc8fcea1516" y="74.88"/>
      </g>
     </g>
     <g id="line2d_54">
      <g>
       <use style="stroke:#000000;stroke-linecap:butt;stroke-width:0.5;" x="518.4" xlink:href="#m0d5b0a6425" y="74.88"/>
      </g>
     </g>
     <g id="text_27">
      <!-- 8 -->
      <g transform="translate(306.490909091 78.51984375)scale(0.1 -0.1)">
       <use xlink:href="#BitstreamVeraSans-Roman-38"/>
      </g>
     </g>
    </g>
    <g id="ytick_12">
     <g id="line2d_55">
      <g>
       <use style="stroke:#000000;stroke-linecap:butt;stroke-width:0.5;" x="315.490909091" xlink:href="#mc8fcea1516" y="28.8"/>
      </g>
     </g>
     <g id="line2d_56">
      <g>
       <use style="stroke:#000000;stroke-linecap:butt;stroke-width:0.5;" x="518.4" xlink:href="#m0d5b0a6425" y="28.8"/>
      </g>
     </g>
     <g id="text_28">
      <!-- 10 -->
      <g transform="translate(300.528409091 32.43984375)scale(0.1 -0.1)">
       <use xlink:href="#BitstreamVeraSans-Roman-31"/>
       <use x="63.623046875" xlink:href="#BitstreamVeraSans-Roman-30"/>
      </g>
     </g>
    </g>
   </g>
   <g id="patch_8">
    <path d="
M315.491 28.8
L518.4 28.8" style="fill:none;stroke:#000000;"/>
   </g>
   <g id="patch_9">
    <path d="
M518.4 259.2
L518.4 28.8" style="fill:none;stroke:#000000;"/>
   </g>
   <g id="patch_10">
    <path d="
M315.491 259.2
L518.4 259.2" style="fill:none;stroke:#000000;"/>
   </g>
   <g id="patch_11">
    <path d="
M315.491 259.2
L315.491 28.8" style="fill:none;stroke:#000000;"/>
   </g>
   <g id="text_29">
    <!-- reference: 4AKE (open) -->
    <g transform="translate(347.677329545 23.8)scale(0.12 -0.12)">
     <use xlink:href="#BitstreamVeraSans-Roman-72"/>
     <use x="38.86328125" xlink:href="#BitstreamVeraSans-Roman-65"/>
     <use x="100.38671875" xlink:href="#BitstreamVeraSans-Roman-66"/>
     <use x="135.591796875" xlink:href="#BitstreamVeraSans-Roman-65"/>
     <use x="197.115234375" xlink:href="#BitstreamVeraSans-Roman-72"/>
     <use x="235.978515625" xlink:href="#BitstreamVeraSans-Roman-65"/>
     <use x="297.501953125" xlink:href="#BitstreamVeraSans-Roman-6e"/>
     <use x="360.880859375" xlink:href="#BitstreamVeraSans-Roman-63"/>
     <use x="415.861328125" xlink:href="#BitstreamVeraSans-Roman-65"/>
     <use x="477.384765625" xlink:href="#BitstreamVeraSans-Roman-3a"/>
     <use x="511.076171875" xlink:href="#BitstreamVeraSans-Roman-20"/>
     <use x="542.86328125" xlink:href="#BitstreamVeraSans-Roman-34"/>
     <use x="606.486328125" xlink:href="#BitstreamVeraSans-Roman-41"/>
     <use x="674.89453125" xlink:href="#BitstreamVeraSans-Roman-4b"/>
     <use x="740.470703125" xlink:href="#BitstreamVeraSans-Roman-45"/>
     <use x="803.654296875" xlink:href="#BitstreamVeraSans-Roman-20"/>
     <use x="835.44140625" xlink:href="#BitstreamVeraSans-Roman-28"/>
     <use x="874.455078125" xlink:href="#BitstreamVeraSans-Roman-6f"/>
     <use x="935.63671875" xlink:href="#BitstreamVeraSans-Roman-70"/>
     <use x="999.11328125" xlink:href="#BitstreamVeraSans-Roman-65"/>
     <use x="1060.63671875" xlink:href="#BitstreamVeraSans-Roman-6e"/>
     <use x="1124.015625" xlink:href="#BitstreamVeraSans-Roman-29"/>
    </g>
   </g>
   <g id="legend_1">
    <g id="patch_12">
     <path d="
M436.887 106.368
L512.4 106.368
L512.4 34.8
L436.887 34.8
L436.887 106.368
z
" style="fill:#ffffff;stroke:#000000;"/>
    </g>
    <g id="line2d_57">
     <path d="
M445.288 44.5262
L462.087 44.5262" style="fill:none;stroke:#000000;"/>
    </g>
    <g id="line2d_58"/>
    <g id="text_30">
     <!-- all -->
     <defs>
      <path d="
M34.2812 27.4844
Q23.3906 27.4844 19.1875 25
Q14.9844 22.5156 14.9844 16.5
Q14.9844 11.7188 18.1406 8.90625
Q21.2969 6.10938 26.7031 6.10938
Q34.1875 6.10938 38.7031 11.4062
Q43.2188 16.7031 43.2188 25.4844
L43.2188 27.4844
z

M52.2031 31.2031
L52.2031 0
L43.2188 0
L43.2188 8.29688
Q40.1406 3.32812 35.5469 0.953125
Q30.9531 -1.42188 24.3125 -1.42188
Q15.9219 -1.42188 10.9531 3.29688
Q6 8.01562 6 15.9219
Q6 25.1406 12.1719 29.8281
Q18.3594 34.5156 30.6094 34.5156
L43.2188 34.5156
L43.2188 35.4062
Q43.2188 41.6094 39.1406 45
Q35.0625 48.3906 27.6875 48.3906
Q23 48.3906 18.5469 47.2656
Q14.1094 46.1406 10.0156 43.8906
L10.0156 52.2031
Q14.9375 54.1094 19.5781 55.0469
Q24.2188 56 28.6094 56
Q40.4844 56 46.3438 49.8438
Q52.2031 43.7031 52.2031 31.2031" id="BitstreamVeraSans-Roman-61"/>
     </defs>
     <g transform="translate(475.2875 48.72625)scale(0.12 -0.12)">
      <use xlink:href="#BitstreamVeraSans-Roman-61"/>
      <use x="61.279296875" xlink:href="#BitstreamVeraSans-Roman-6c"/>
      <use x="89.0625" xlink:href="#BitstreamVeraSans-Roman-6c"/>
     </g>
    </g>
    <g id="line2d_59">
     <path d="
M445.288 62.14
L462.087 62.14" style="fill:none;stroke:#000000;stroke-dasharray:6.000000,6.000000;stroke-dashoffset:0.0;stroke-linecap:butt;"/>
    </g>
    <g id="line2d_60"/>
    <g id="text_31">
     <!-- CORE -->
     <defs>
      <path d="
M39.4062 66.2188
Q28.6562 66.2188 22.3281 58.2031
Q16.0156 50.2031 16.0156 36.375
Q16.0156 22.6094 22.3281 14.5938
Q28.6562 6.59375 39.4062 6.59375
Q50.1406 6.59375 56.4219 14.5938
Q62.7031 22.6094 62.7031 36.375
Q62.7031 50.2031 56.4219 58.2031
Q50.1406 66.2188 39.4062 66.2188
M39.4062 74.2188
Q54.7344 74.2188 63.9062 63.9375
Q73.0938 53.6562 73.0938 36.375
Q73.0938 19.1406 63.9062 8.85938
Q54.7344 -1.42188 39.4062 -1.42188
Q24.0312 -1.42188 14.8125 8.82812
Q5.60938 19.0938 5.60938 36.375
Q5.60938 53.6562 14.8125 63.9375
Q24.0312 74.2188 39.4062 74.2188" id="BitstreamVeraSans-Roman-4f"/>
      <path d="
M64.4062 67.2812
L64.4062 56.8906
Q59.4219 61.5312 53.7812 63.8125
Q48.1406 66.1094 41.7969 66.1094
Q29.2969 66.1094 22.6562 58.4688
Q16.0156 50.8281 16.0156 36.375
Q16.0156 21.9688 22.6562 14.3281
Q29.2969 6.6875 41.7969 6.6875
Q48.1406 6.6875 53.7812 8.98438
Q59.4219 11.2812 64.4062 15.9219
L64.4062 5.60938
Q59.2344 2.09375 53.4375 0.328125
Q47.6562 -1.42188 41.2188 -1.42188
Q24.6562 -1.42188 15.125 8.70312
Q5.60938 18.8438 5.60938 36.375
Q5.60938 53.9531 15.125 64.0781
Q24.6562 74.2188 41.2188 74.2188
Q47.75 74.2188 53.5312 72.4844
Q59.3281 70.75 64.4062 67.2812" id="BitstreamVeraSans-Roman-43"/>
     </defs>
     <g transform="translate(475.2875 66.34)scale(0.12 -0.12)">
      <use xlink:href="#BitstreamVeraSans-Roman-43"/>
      <use x="69.82421875" xlink:href="#BitstreamVeraSans-Roman-4f"/>
      <use x="148.53515625" xlink:href="#BitstreamVeraSans-Roman-52"/>
      <use x="218.017578125" xlink:href="#BitstreamVeraSans-Roman-45"/>
     </g>
    </g>
    <g id="line2d_61">
     <path d="
M445.288 79.7537
L462.087 79.7537" style="fill:none;stroke:#ff0000;stroke-dasharray:6.000000,6.000000;stroke-dashoffset:0.0;stroke-linecap:butt;"/>
    </g>
    <g id="line2d_62"/>
    <g id="text_32">
     <!-- LID -->
     <defs>
      <path d="
M9.8125 72.9062
L19.6719 72.9062
L19.6719 8.29688
L55.1719 8.29688
L55.1719 0
L9.8125 0
z
" id="BitstreamVeraSans-Roman-4c"/>
      <path d="
M9.8125 72.9062
L19.6719 72.9062
L19.6719 0
L9.8125 0
z
" id="BitstreamVeraSans-Roman-49"/>
     </defs>
     <g transform="translate(475.2875 83.95375)scale(0.12 -0.12)">
      <use xlink:href="#BitstreamVeraSans-Roman-4c"/>
      <use x="55.712890625" xlink:href="#BitstreamVeraSans-Roman-49"/>
      <use x="85.205078125" xlink:href="#BitstreamVeraSans-Roman-44"/>
     </g>
    </g>
    <g id="line2d_63">
     <path d="
M445.288 97.3675
L462.087 97.3675" style="fill:none;stroke:#0000ff;stroke-dasharray:6.000000,6.000000;stroke-dashoffset:0.0;stroke-linecap:butt;"/>
    </g>
    <g id="line2d_64"/>
    <g id="text_33">
     <!-- NMP -->
     <defs>
      <path d="
M19.6719 64.7969
L19.6719 37.4062
L32.0781 37.4062
Q38.9688 37.4062 42.7188 40.9688
Q46.4844 44.5312 46.4844 51.125
Q46.4844 57.6719 42.7188 61.2344
Q38.9688 64.7969 32.0781 64.7969
z

M9.8125 72.9062
L32.0781 72.9062
Q44.3438 72.9062 50.6094 67.3594
Q56.8906 61.8125 56.8906 51.125
Q56.8906 40.3281 50.6094 34.8125
Q44.3438 29.2969 32.0781 29.2969
L19.6719 29.2969
L19.6719 0
L9.8125 0
z
" id="BitstreamVeraSans-Roman-50"/>
      <path d="
M9.8125 72.9062
L23.0938 72.9062
L55.4219 11.9219
L55.4219 72.9062
L64.9844 72.9062
L64.9844 0
L51.7031 0
L19.3906 60.9844
L19.3906 0
L9.8125 0
z
" id="BitstreamVeraSans-Roman-4e"/>
     </defs>
     <g transform="translate(475.2875 101.5675)scale(0.12 -0.12)">
      <use xlink:href="#BitstreamVeraSans-Roman-4e"/>
      <use x="74.8046875" xlink:href="#BitstreamVeraSans-Roman-4d"/>
      <use x="161.083984375" xlink:href="#BitstreamVeraSans-Roman-50"/>
     </g>
    </g>
   </g>
  </g>
 </g>
 <defs>
  <clipPath id="p2d6743a81f">
   <rect height="230.4" width="202.909090909" x="72.0" y="28.8"/>
  </clipPath>
  <clipPath id="p3584a46651">
   <rect height="230.4" width="202.909090909" x="315.490909091" y="28.8"/>
  </clipPath>
 </defs>
</svg>
